#!OML:ASF E:\id_vita\Project 1\Capture day 1\Session 1\Male1.ASF
:FULLY-SPECIFIED
:DEGREES
652
root 35.4899 16.3325 0.45392 367.347 101.072 365.955
lowerback -3.18709 -1.04487 -1.76317
upperback 1.38984 -1.33959 0.903914
thorax 3.27963 -0.713638 1.83859
lowerneck -6.08375 0.415304 7.07896
upperneck 9.93142 -0.311255 2.74417
head 4.38436 0.316847 -0.344605
rclavicle -2.88269e-014 1.98785e-015
rhumerus -23.1183 -2.30592 -86.0756
rradius 24.799
rwrist 3.93443
rhand -22.0929 34.4201
rfingers 7.12502
rthumb 4.31905 4.48414
lclavicle -2.88269e-014 1.98785e-015
lhumerus -30.8801 22.9198 74.2643
lradius 4.01755
lwrist -13.5625
lhand -15.1266 50.1405
lfingers 7.12502
lthumb 11.0426 79.83
rfemur -9.24669 -6.24071 25.052
rtibia 22.8158
rfoot -12.3616 -10.5617
rtoes 1.37231
lfemur -15.2753 -0.234394 -14.5324
ltibia 44.1304
lfoot -25.4808 -3.30702
ltoes 0.805641
653
root 35.5209 16.3228 0.437329 366.916 100.9 365.507
lowerback -3.10286 -0.986275 -1.79499
upperback 1.37465 -1.26098 0.892647
thorax 3.21326 -0.674287 1.8512
lowerneck -6.26754 0.404123 7.20364
upperneck 10.1354 -0.345318 2.54365
head 4.4962 0.303554 -0.436666
rclavicle 1.05589e-014 -8.36138e-015
rhumerus -23.1665 -1.95941 -86.1749
rradius 25.2177
rwrist 3.89948
rhand -22.1092 34.5474
rfingers 7.12502
rthumb 4.30328 4.61112
lclavicle 1.05589e-014 -8.36138e-015
lhumerus -30.9461 23.1704 74.1243
lradius 3.77862
lwrist -13.8009
lhand -15.3042 50.1183
lfingers 7.12502
lthumb 10.8713 79.8169
rfemur -9.20253 -6.13984 24.8907
rtibia 22.9775
rfoot -12.5932 -10.5876
rtoes 1.00147
lfemur -15.4188 -0.472018 -14.5531
ltibia 43.1619
lfoot -26.0737 -2.96925
ltoes 0.62032
654
root 35.5477 16.3127 0.42159 368.631 100.796 367.342
lowerback -2.91171 -0.955087 -1.35842
upperback 1.4414 -1.24148 0.968523
thorax 3.16524 -0.655829 1.68801
lowerneck -6.3765 0.476128 7.21806
upperneck 10.1931 -0.261574 2.5254
head 4.54213 0.347083 -0.440612
rclavicle 7.42259e-015 -1.25483e-015
rhumerus -22.9676 -1.55005 -86.3714
rradius 25.3515
rwrist 3.87415
rhand -22.3123 34.7777
rfingers 7.12502
rthumb 4.10724 4.83755
lclavicle 7.42259e-015 -1.25483e-015
lhumerus -30.814 23.5506 73.9747
lradius 3.47568
lwrist -14.1005
lhand -15.2094 50.25
lfingers 7.12502
lthumb 10.9628 79.9437
rfemur -9.08302 -6.20625 25.1815
rtibia 23.1628
rfoot -12.9266 -10.5199
rtoes 0.576557
lfemur -15.4519 -0.722735 -14.0908
ltibia 42.1445
lfoot -26.748 -2.37105
ltoes 0.257716
655
root 35.5895 16.3103 0.411064 369.062 100.546 367.811
lowerback -3.15197 -0.924001 -1.3923
upperback 1.61603 -1.19684 1.01815
thorax 3.48135 -0.638259 1.75575
lowerneck -6.30837 0.532216 7.32866
upperneck 10.0503 -0.170851 2.34459
head 4.47943 0.378973 -0.517026
rclavicle 1.41254e-014 -1.32968e-014
rhumerus -22.6183 -1.08743 -86.5712
rradius 25.3794
rwrist 3.73715
rhand -22.3511 34.9299
rfingers 7.12502
rthumb 4.0697 4.98902
lclavicle 1.41254e-014 -1.32968e-014
lhumerus -30.6721 24.0104 73.8452
lradius 3.37659
lwrist -14.4174
lhand -15.1379 50.4225
lfingers 7.12502
lthumb 11.0318 80.1126
rfemur -8.95691 -5.7407 25.2551
rtibia 23.3312
rfoot -13.1116 -10.8439
rtoes 0.716276
lfemur -15.5007 -0.925555 -13.8654
ltibia 41.0981
lfoot -27.3269 -1.58513
ltoes -0.337427
656
root 35.6212 16.31 0.39224 367.404 100.416 365.914
lowerback -3.43171 -0.96771 -1.76679
upperback 1.61388 -1.23332 0.968686
thorax 3.64617 -0.666483 1.90834
lowerneck -6.39694 0.558896 7.44284
upperneck 10.1806 -0.142493 2.15846
head 4.54743 0.392698 -0.599234
rclavicle -2.49102e-015 -6.70898e-016
rhumerus -22.396 -0.534131 -86.7382
rradius 25.4452
rwrist 3.47709
rhand -22.03 34.8327
rfingers 7.12502
rthumb 4.37979 4.89795
lclavicle -2.49102e-015 -6.70898e-016
lhumerus -30.7943 24.4473 73.6655
lradius 3.44444
lwrist -14.6933
lhand -15.0898 50.5822
lfingers 7.12502
lthumb 11.0782 80.2698
rfemur -9.08335 -5.96361 24.7871
rtibia 23.432
rfoot -13.3555 -10.5962
rtoes 0.968474
lfemur -15.8176 -1.27814 -14.1837
ltibia 40.0408
lfoot -27.615 -0.842482
ltoes -0.909699
657
root 35.6435 16.3095 0.372996 366.769 100.341 365.092
lowerback -3.42961 -0.964313 -1.84111
upperback 1.51835 -1.22463 0.923718
thorax 3.54635 -0.66186 1.90504
lowerneck -6.66602 0.611105 7.56613
upperneck 10.9507 -0.11267 2.02296
head 4.39276 0.4288 -0.60714
rclavicle -1.48211e-014 2.90723e-015
rhumerus -22.3421 -0.164072 -86.8986
rradius 25.524
rwrist 3.32166
rhand -21.8116 34.7144
rfingers 7.12502
rthumb 4.59072 4.78411
lclavicle -1.48211e-014 2.90723e-015
lhumerus -30.8288 24.7476 73.492
lradius 3.26477
lwrist -15.0302
lhand -15.2353 50.6192
lfingers 7.12502
lthumb 10.9378 80.3143
rfemur -9.17465 -6.13107 24.5372
rtibia 23.4674
rfoot -13.5866 -10.3552
rtoes 1.28758
lfemur -16.1405 -1.5775 -14.2827
ltibia 39.0012
lfoot -27.7549 -0.385416
ltoes -0.625581
658
root 35.6764 16.3115 0.357959 367.101 100.166 365.388
lowerback -3.48781 -0.891815 -1.74545
upperback 1.51529 -1.13034 0.879547
thorax 3.56853 -0.612396 1.81118
lowerneck -6.71218 0.658672 7.75066
upperneck 11.1451 -0.0667061 1.92922
head 4.46223 0.462249 -0.662668
rclavicle 7.74057e-015 -9.72181e-016
rhumerus -22.3516 -0.199068 -87.056
rradius 25.6386
rwrist 3.54973
rhand -21.8029 34.8798
rfingers 7.12502
rthumb 4.59907 4.9497
lclavicle 7.74057e-015 -9.72181e-016
lhumerus -30.7237 24.9633 73.3012
lradius 3.03857
lwrist -15.4108
lhand -15.4663 50.5033
lfingers 7.12502
lthumb 10.715 80.21
rfemur -9.10233 -5.95118 24.5556
rtibia 23.515
rfoot -13.6372 -10.4776
rtoes 0.667186
lfemur -16.282 -1.75255 -14.1344
ltibia 37.9726
lfoot -27.9336 0.00182061
ltoes -0.336102
659
root 35.717 16.3046 0.348502 368.874 100.027 367.388
lowerback -3.39347 -0.838679 -1.47437
upperback 1.58352 -1.07497 0.942755
thorax 3.57912 -0.579504 1.72869
lowerneck -6.63471 0.634349 7.81763
upperneck 11.1426 -0.104925 2.00898
head 4.44814 0.451779 -0.651041
rclavicle 9.26834e-015 7.93896e-015
rhumerus -22.4079 -0.178181 -87.2272
rradius 25.8032
rwrist 3.7704
rhand -21.7511 34.9918
rfingers 7.12502
rthumb 4.64911 5.06276
lclavicle 9.26834e-015 7.93896e-015
lhumerus -30.7625 25.2305 73.0724
lradius 3.04206
lwrist -15.7638
lhand -15.4498 50.5091
lfingers 7.12502
lthumb 10.7309 80.215
rfemur -8.69951 -5.47601 24.9168
rtibia 23.4783
rfoot -13.5496 -10.9377
rtoes -0.212453
lfemur -16.1222 -1.88658 -13.6257
ltibia 36.9952
lfoot -28.3804 0.380293
ltoes -0.426427
660
root 35.7452 16.2997 0.329335 368.876 99.978 367.282
lowerback -3.38989 -0.884711 -1.45868
upperback 1.48979 -1.13753 0.935702
thorax 3.48229 -0.60893 1.7092
lowerneck -6.78318 0.625023 7.73402
upperneck 11.3639 -0.146003 2.16899
head 4.54063 0.448378 -0.590176
rclavicle 5.08609e-017 -8.27441e-015
rhumerus -22.6012 0.293505 -87.4465
rradius 26.0781
rwrist 3.59311
rhand -21.8098 34.9388
rfingers 7.12502
rthumb 4.59245 5.00856
lclavicle 5.08609e-017 -8.27441e-015
lhumerus -31.0678 25.6214 72.8298
lradius 3.25462
lwrist -16.1246
lhand -15.2581 50.7435
lfingers 7.12502
lthumb 10.9158 80.4397
rfemur -8.64884 -5.81432 24.7816
rtibia 23.3997
rfoot -13.5037 -10.7215
rtoes -1.6673
lfemur -16.2701 -2.14731 -13.6062
ltibia 36.0157
lfoot -28.6804 0.964182
ltoes -0.881419
661
root 35.7839 16.2955 0.316748 370.028 99.7255 368.397
lowerback -3.54416 -0.86414 -1.42037
upperback 1.47732 -1.11258 1.01055
thorax 3.5563 -0.596967 1.76448
lowerneck -6.7183 0.677191 7.65062
upperneck 11.4356 -0.0713699 2.26423
head 4.55397 0.49023 -0.54307
rclavicle 1.90049e-015 -2.67117e-015
rhumerus -22.7249 0.692257 -87.6588
rradius 26.2021
rwrist 3.49726
rhand -21.8835 34.9597
rfingers 7.12502
rthumb 4.52129 5.02798
lclavicle 1.90049e-015 -2.67117e-015
lhumerus -31.1464 26.1041 72.6549
lradius 3.19472
lwrist -16.5891
lhand -14.951 50.8126
lfingers 7.12502
lthumb 11.212 80.493
rfemur -8.56817 -5.18884 24.9742
rtibia 23.4194
rfoot -13.23 -11.1882
rtoes -2.85914
lfemur -16.287 -2.14542 -13.3061
ltibia 34.9874
lfoot -28.9456 1.53293
ltoes -0.499649
662
root 35.8247 16.2912 0.303902 371.047 99.4937 369.487
lowerback -3.6933 -0.800816 -1.37178
upperback 1.52654 -1.0303 1.05787
thorax 3.68802 -0.556719 1.78941
lowerneck -6.37572 0.687249 7.65095
upperneck 11.249 -0.0125846 2.22953
head 4.44026 0.507681 -0.55151
rclavicle -1.10912e-014 1.92573e-015
rhumerus -22.689 0.771492 -87.7756
rradius 26.1097
rwrist 3.63178
rhand -21.894 35.0138
rfingers 7.12502
rthumb 4.51116 5.08187
lclavicle -1.10912e-014 1.92573e-015
lhumerus -30.9931 26.4975 72.5904
lradius 2.99404
lwrist -17.1306
lhand -14.7647 50.6211
lfingers 7.12502
lthumb 11.3917 80.2917
rfemur -8.3684 -4.61687 25.1342
rtibia 23.471
rfoot -13.3999 -11.5089
rtoes -1.87968
lfemur -16.1517 -2.17783 -13.0415
ltibia 33.9443
lfoot -29.1296 2.14068
ltoes -0.175381
663
root 35.8376 16.2995 0.262103 368.123 99.4254 366.143
lowerback -3.98648 -0.86202 -1.54503
upperback 1.44492 -1.09332 0.831368
thorax 3.77065 -0.590154 1.64508
lowerneck -6.4408 0.709797 7.73974
upperneck 11.3069 0.0137267 2.09112
head 4.46966 0.518127 -0.606731
rclavicle -4.62757e-015 2.84511e-015
rhumerus -22.5242 1.11914 -87.9255
rradius 26.1278
rwrist 3.38417
rhand -21.9022 35.1683
rfingers 7.12502
rthumb 4.50323 5.23621
lclavicle -4.62757e-015 2.84511e-015
lhumerus -30.8995 26.975 72.5368
lradius 3.08277
lwrist -17.6778
lhand -14.856 50.5406
lfingers 7.12502
lthumb 11.3037 80.216
rfemur -8.73329 -6.02412 24.2588
rtibia 23.5308
rfoot -14.0568 -10.2301
rtoes -1.59852
lfemur -16.5529 -2.61074 -13.7502
ltibia 32.9222
lfoot -28.7954 2.87988
ltoes -1.22155
